<svg width="93" height="103" viewBox="0 0 93 103" fill="none" xmlns="http://www.w3.org/2000/svg">
<rect y="14" width="85" height="85" rx="42.5" fill="url(#paint0_linear_257_801)"/>
<path d="M19.3406 46.5145C18.5488 48.6267 19.1671 51.0094 20.8877 52.4689C24.1474 55.731 30.8514 67.5068 34.1698 75.8047C36.4345 81.4644 41.407 87.0193 45.1796 90.684C46.8032 92.2818 47.7147 94.4659 47.71 96.7446V97.3692C47.71 100.199 50.0035 102.493 52.8334 102.493H80.156C82.9858 102.493 85.2793 100.199 85.2793 97.3692V92.1231C85.2637 91.6892 85.4287 91.2679 85.7351 90.9607C92.0381 85.1971 92.11 75.5757 92.11 75.1692V48.135C92.1733 44.4782 89.4162 41.3865 85.7765 41.0331C84.4085 40.9432 83.0452 41.2677 81.864 41.9634V39.3079C81.8781 36.847 80.5601 34.5715 78.4182 33.359C76.2771 32.1466 73.6474 32.1872 71.5446 33.4661C71.3257 31.1624 69.942 29.1315 67.8791 28.0848C65.8153 27.038 63.36 27.1201 61.3713 28.3036V25.4754C65.6098 23.07 68.2207 18.5658 68.2027 13.6926C68.2027 6.14741 62.0858 0.03125 54.5406 0.03125C46.9955 0.03125 40.8793 6.14741 40.8793 13.6926C40.8613 18.5658 43.4723 23.07 47.71 25.4754V52.9692C47.7584 54.9852 47.4841 56.995 46.897 58.9243C46.7141 59.4942 46.2474 59.9288 45.6658 60.0719C45.1186 60.2102 44.5385 60.0578 44.1289 59.6685C42.7953 58.3967 41.6102 56.9771 40.5979 55.4371C37.6344 51.004 30.1776 42.7232 25.51 42.7232C22.8881 42.6685 20.4765 44.1506 19.3406 46.5145V46.5145ZM44.2947 13.6926C44.2947 8.0337 48.8818 3.44658 54.5406 3.44658C60.1995 3.44658 64.7866 8.0337 64.7866 13.6926C64.803 16.6146 63.5585 19.4014 61.3713 21.3401V13.6926C61.3713 9.91998 58.3132 6.8619 54.5406 6.8619C50.7681 6.8619 47.71 9.91998 47.71 13.6926V21.3401C45.5235 19.4014 44.2782 16.6146 44.2947 13.6926ZM37.7509 57.3327C38.9086 59.0885 40.2625 60.7066 41.7861 62.1567C43.0423 63.3449 44.8192 63.8085 46.496 63.3848C48.2048 62.9588 49.5767 61.6877 50.1333 60.0172C50.84 57.7361 51.1753 55.3566 51.1253 52.9692V13.6926C51.1253 11.8063 52.6543 10.2772 54.5406 10.2772C56.4269 10.2772 57.956 11.8063 57.956 13.6926V49.5539C57.956 50.4974 58.7205 51.2619 59.664 51.2619C60.6068 51.2619 61.3713 50.4974 61.3713 49.5539V34.1853C61.3713 32.299 62.9011 30.77 64.7866 30.77C66.6729 30.77 68.2027 32.299 68.2027 34.1853V49.5539C68.2027 50.4974 68.9672 51.2619 69.91 51.2619C70.8535 51.2619 71.618 50.4974 71.618 49.5539V39.3079C71.618 37.4216 73.1471 35.8926 75.0334 35.8926C76.9197 35.8926 78.4487 37.4216 78.4487 39.3079V51.2619C78.4487 52.2047 79.2132 52.9692 80.156 52.9692C81.0995 52.9692 81.864 52.2047 81.864 51.2619V47.8466C81.8617 46.9406 82.2228 46.0713 82.8662 45.4334C83.5705 44.7354 84.5406 44.3734 85.5303 44.4399C87.3751 44.6806 88.74 46.2753 88.6947 48.135V75.1692C88.6947 75.2528 88.6079 83.7079 83.4282 88.442C82.4159 89.3965 81.8484 90.7316 81.864 92.1231V97.3692C81.864 98.3127 81.0995 99.0773 80.156 99.0773H52.8334C51.8898 99.0773 51.1253 98.3127 51.1253 97.3692V96.7446C51.1276 93.5435 49.8417 90.476 47.5583 88.2333C44.6652 85.4246 39.491 79.9064 37.3428 74.5344C33.8282 65.7534 26.8748 53.6266 23.3024 50.0542C22.4894 49.242 22.2174 48.4899 22.4941 47.8208C23.1132 46.7483 24.2717 46.1018 25.51 46.1385C27.8309 46.1385 34.1237 51.892 37.7509 57.3327V57.3327Z" fill="#5C5C5C"/>
<path d="M83.5706 73.4621C84.5141 73.4621 85.2786 72.6976 85.2786 71.754V61.5081C85.2786 60.5653 84.5141 59.8008 83.5706 59.8008C82.6278 59.8008 81.8633 60.5653 81.8633 61.5081V71.754C81.8633 72.6976 82.6278 73.4621 83.5706 73.4621V73.4621Z" fill="#5C5C5C"/>
<path d="M81.8637 83.7052C82.3163 83.7052 82.751 83.5254 83.0707 83.2049C84.3699 82.0026 85.1602 80.3485 85.2791 78.5818C85.2775 77.6594 84.5349 76.9097 83.6124 76.8988C82.6798 76.8808 81.9036 77.6109 81.8637 78.5427C81.7355 79.4096 81.3087 80.2046 80.656 80.7902C80.1682 81.2787 80.022 82.0128 80.2862 82.6506C80.5504 83.2893 81.1727 83.7052 81.8637 83.7052V83.7052Z" fill="#5C5C5C"/>
<path d="M56.2471 95.6614H57.9544C58.8979 95.6614 59.6624 94.8969 59.6624 93.9534C59.6624 93.0106 58.8979 92.2461 57.9544 92.2461H56.2471C55.3036 92.2461 54.5391 93.0106 54.5391 93.9534C54.5391 94.8969 55.3036 95.6614 56.2471 95.6614Z" fill="#5C5C5C"/>
<path d="M64.7854 95.6614H76.7394C77.683 95.6614 78.4475 94.8969 78.4475 93.9534C78.4475 93.0106 77.683 92.2461 76.7394 92.2461H64.7854C63.8426 92.2461 63.0781 93.0106 63.0781 93.9534C63.0781 94.8969 63.8426 95.6614 64.7854 95.6614Z" fill="#5C5C5C"/>
<path d="M40.8774 28.2746C41.559 28.2746 42.175 27.8704 42.4455 27.2451C42.716 26.6197 42.5893 25.8935 42.1226 25.3971C36.2058 19.1433 35.8845 9.45864 41.3745 2.82654C41.7803 2.3583 41.9006 1.70712 41.6896 1.12474C41.4777 0.542365 40.9673 0.120237 40.3552 0.0217402C39.7431 -0.0767562 39.1263 0.164013 38.7425 0.651023C32.1573 8.60891 32.5388 20.2284 39.6329 27.7368C39.9557 28.0799 40.406 28.2746 40.8774 28.2746Z" fill="#5C5C5C"/>
<path d="M70.4805 23.7508C70.8831 23.9572 71.3521 23.9955 71.7828 23.8563C72.2143 23.7172 72.5724 23.4131 72.7787 23.0097C76.5122 15.7397 75.5523 6.94385 70.3382 0.651023C69.9552 0.164013 69.3376 -0.0767562 68.7255 0.0217402C68.1142 0.120237 67.6038 0.542365 67.3919 1.12474C67.1801 1.70712 67.3005 2.3583 67.707 2.82654C72.0517 8.06875 72.8514 15.3966 69.741 21.4525C69.3103 22.2913 69.6417 23.3201 70.4805 23.7508Z" fill="#5C5C5C"/>
<defs>
<linearGradient id="paint0_linear_257_801" x1="83.895" y1="16.0556" x2="-11.5335" y2="44.1824" gradientUnits="userSpaceOnUse">
<stop stop-color="#925FE2"/>
<stop offset="1" stop-color="#DFCFF7"/>
</linearGradient>
</defs>
</svg>
