<svg width="100" height="89" viewBox="0 0 100 89" fill="none" xmlns="http://www.w3.org/2000/svg">
<circle cx="39" cy="39" r="39" fill="url(#paint0_linear_273_777)" style="mix-blend-mode:multiply"/>
<path d="M47.0938 76.9375H49.4375V79.3125H47.0938V76.9375Z" fill="white"/>
<path d="M47.0938 81.6875H49.4375V84.0625H47.0938V81.6875Z" fill="white"/>
<path d="M83.4219 53.1875C79.5441 53.1875 76.3906 56.3831 76.3906 60.3125C76.3906 64.2419 79.5441 67.4375 83.4219 67.4375C87.2996 67.4375 90.4531 64.2419 90.4531 60.3125C90.4531 56.3831 87.2996 53.1875 83.4219 53.1875ZM83.4219 65.0625C80.8367 65.0625 78.7344 62.9321 78.7344 60.3125C78.7344 57.6929 80.8367 55.5625 83.4219 55.5625C86.007 55.5625 88.1094 57.6929 88.1094 60.3125C88.1094 62.9321 86.007 65.0625 83.4219 65.0625Z" fill="white"/>
<path d="M99.8281 15.1875H36.5469V38.9375C35.2543 38.9375 34.2031 40.0027 34.2031 41.3125H33.0312C31.093 41.3125 29.5156 42.9109 29.5156 44.875V51.2103C27.9125 52.3467 27.1719 55.6148 27.1719 56.75C27.1719 58.7141 28.7492 60.3125 30.6875 60.3125C32.6258 60.3125 34.2031 58.7141 34.2031 56.75C34.2031 55.6148 33.4625 52.3467 31.8594 51.2103V44.875C31.8594 44.2207 32.3855 43.6875 33.0312 43.6875H34.2031C34.2031 44.9973 35.2543 46.0625 36.5469 46.0625V50.4289L37.2828 50.727C37.3379 50.7496 37.6883 50.8885 38.2344 51.0856C37.8957 52.1437 37.7188 53.2433 37.7188 54.375C37.7188 58.2118 39.7309 61.5724 42.7355 63.4582C33.7824 65.9294 27.1719 74.2181 27.1719 84.0625V88.8125H69.3594V84.0625C69.3594 74.2181 62.7488 65.9294 53.7957 63.4582C54.1719 63.2219 54.5363 62.9689 54.8797 62.6875H71.9387C72.6195 66.0719 74.7301 68.929 77.5953 70.601L76.2031 84.7038L83.4219 81.7789L90.6395 84.7038L89.2473 70.601C92.1125 68.9278 94.223 66.0719 94.9039 62.6875H99.8281V15.1875ZM30.6875 57.9375C30.0418 57.9375 29.5156 57.4043 29.5156 56.75C29.5156 55.7691 30.1848 53.8572 30.6875 53.2872C31.1902 53.8561 31.8594 55.7691 31.8594 56.75C31.8594 57.4043 31.3332 57.9375 30.6875 57.9375ZM36.5457 41.3125H36.5469H59.9844V43.6875H36.5469L36.5457 41.3125ZM57.6406 46.0625V48.8009C55.9602 49.4112 51.7262 50.8125 48.2656 50.8125C44.8051 50.8125 40.5711 49.4112 38.8906 48.8009V46.0625H57.6406ZM48.2656 71.7921L51.9816 76.8128L55.2969 70.0939V86.4375H41.2344V70.0939L44.5496 76.8128L48.2656 71.7921ZM59.9844 86.4375H57.6406V67.6334C58.4621 68.1168 59.2473 68.6547 59.9844 69.2544V86.4375ZM54.3359 66.1039C54.4238 66.1348 54.5094 66.1692 54.5973 66.2013L51.582 72.3134L49.8629 69.9906L54.3359 66.1039ZM36.5469 69.2544C37.284 68.6547 38.0691 68.1168 38.8906 67.6334V86.4375H36.5469V69.2544ZM44.9504 72.3122L41.9352 66.2001C42.0219 66.1681 42.1086 66.1336 42.1965 66.1027L46.6695 69.9882L44.9504 72.3122ZM29.5156 84.0625C29.5156 79.2626 31.2957 74.8855 34.2031 71.5379V86.4375H29.5156V84.0625ZM67.0156 84.0625V86.4375H62.3281V71.5379C65.2355 74.8855 67.0156 79.2626 67.0156 84.0625ZM51.5715 65.3772L48.2656 68.2486L44.9598 65.3772C46.0344 65.1812 47.1359 65.0625 48.2656 65.0625C49.3953 65.0625 50.4969 65.1812 51.5715 65.3772ZM48.2656 62.6875C43.7422 62.6875 40.0625 58.9587 40.0625 54.375C40.0625 53.4962 40.2008 52.6424 40.4621 51.8219C42.6418 52.4798 45.6043 53.1875 48.2656 53.1875C50.927 53.1875 53.8895 52.4797 56.0691 51.8231C56.3305 52.6424 56.4688 53.4962 56.4688 54.375C56.4688 58.9587 52.7891 62.6875 48.2656 62.6875ZM87.923 81.0451L83.4219 79.2211L78.9207 81.0462L79.8512 71.6199C80.9773 71.9856 82.1762 72.1875 83.4219 72.1875C84.6676 72.1875 85.8664 71.9856 86.9926 71.6199L87.923 81.0451ZM83.4219 69.8125C78.2527 69.8125 74.0469 65.5506 74.0469 60.3125C74.0469 55.0744 78.2527 50.8125 83.4219 50.8125C88.591 50.8125 92.7969 55.0744 92.7969 60.3125C92.7969 65.5506 88.591 69.8125 83.4219 69.8125ZM97.4844 60.3125H95.1406C95.1406 53.7646 89.8836 48.4375 83.4219 48.4375C76.9602 48.4375 71.7031 53.7646 71.7031 60.3125H57.0289C58.1539 58.6132 58.8125 56.5707 58.8125 54.375C58.8125 53.2433 58.6344 52.1425 58.2969 51.0868C58.843 50.8897 59.1922 50.7508 59.2484 50.7282L59.9844 50.4289V46.0625C61.277 46.0625 62.3281 44.9973 62.3281 43.6875V41.3125C62.3281 40.0027 61.277 38.9375 59.9844 38.9375H38.8906V17.5625H97.4844V60.3125Z" fill="white"/>
<path d="M95.1406 19.9375H41.2344V31.8125H95.1406V19.9375ZM92.7969 29.4375H43.5781V22.3125H92.7969V29.4375Z" fill="white"/>
<path d="M41.2344 34.1875H43.5781V36.5625H41.2344V34.1875Z" fill="white"/>
<path d="M45.9219 34.1875H95.1406V36.5625H45.9219V34.1875Z" fill="white"/>
<path d="M64.6719 38.9375H90.4531V41.3125H64.6719V38.9375Z" fill="white"/>
<path d="M64.6719 43.6875H95.1406V46.0625H64.6719V43.6875Z" fill="white"/>
<path d="M64.6719 48.4375H67.0156V50.8125H64.6719V48.4375Z" fill="white"/>
<path d="M69.3594 48.4375H71.7031V50.8125H69.3594V48.4375Z" fill="white"/>
<defs>
<linearGradient id="paint0_linear_273_777" x1="76.986" y1="1.88633" x2="-10.5837" y2="27.6968" gradientUnits="userSpaceOnUse">
<stop stop-color="#925FE2"/>
<stop offset="1" stop-color="#DFCFF7"/>
</linearGradient>
</defs>
</svg>
