<svg width="88" height="86" viewBox="0 0 88 86" fill="none" xmlns="http://www.w3.org/2000/svg">
<circle cx="39" cy="39" r="39" fill="url(#paint0_linear_273_817)" style="mix-blend-mode:multiply"/>
<path d="M86.9798 77.0744L79.9506 67.9026C82.2283 67.2119 84.1958 65.7335 85.5116 63.7241C87.167 60.8201 86.4184 57.2759 85.6941 53.8524C85.2561 52.0938 84.9941 50.2947 84.9121 48.4828C84.9938 46.6692 85.2557 44.8685 85.6941 43.1084C86.4138 39.6826 87.167 36.1408 85.5116 33.2414C83.7973 30.2353 80.3457 29.1227 77.0072 28.0488C75.3454 27.584 73.7359 26.9443 72.2052 26.1401C70.8161 25.2256 69.5263 24.1646 68.3573 22.9746C65.8806 20.6414 63.0724 18 59.4983 18C55.9242 18 53.1159 20.6414 50.6381 22.9734C49.4695 24.1637 48.18 25.2251 46.7914 26.1401C45.2608 26.9427 43.6517 27.5808 41.9905 28.0441C38.652 29.118 35.2004 30.2306 33.4861 33.2367C31.8307 36.1408 32.5793 39.685 33.3036 43.1084C33.7415 44.8686 34.0032 46.6692 34.0845 48.4828C34.0027 50.2963 33.7408 52.097 33.3024 53.8571C32.5827 57.2829 31.8296 60.8248 33.4849 63.7241C34.8024 65.7342 36.7721 67.2122 39.0517 67.9014L32.0167 77.0732C31.6251 77.5844 31.7159 78.321 32.2197 78.7184C32.4617 78.9094 32.7684 78.9948 33.0725 78.9561L41.332 77.9092L43.3709 85.15C43.4903 85.5744 43.8346 85.8948 44.2615 85.9789C44.3339 85.9928 44.4074 86 44.481 86C44.8377 86.0003 45.1746 85.8332 45.3936 85.5474L52.7705 75.9172C54.5859 77.7109 56.9705 78.7914 59.4983 78.9655C62.0261 78.7914 64.4106 77.7109 66.226 75.9172L73.6029 85.5439C73.8212 85.831 74.1581 85.9994 74.5155 86C74.5891 86 74.6626 85.9928 74.735 85.9789C75.162 85.8948 75.5062 85.5744 75.6256 85.15L77.6645 77.9103L85.924 78.9573C86.557 79.0379 87.1346 78.5824 87.214 77.94C87.2521 77.6313 87.168 77.32 86.9798 77.0744ZM44.9662 82.2846L43.2808 76.2983C43.1241 75.743 42.5922 75.3863 42.0274 75.4577L35.5585 76.2783L41.3563 68.7139L41.9951 68.9214C43.6548 69.385 45.2622 70.0231 46.7914 70.8254C48.1805 71.7399 49.4702 72.801 50.6392 73.991L51.0366 74.3638L44.9662 82.2846ZM59.4983 76.6207C56.8298 76.6207 54.5853 74.5103 52.208 72.2734C50.9146 70.9619 49.4859 69.7958 47.9465 68.7948C46.2717 67.905 44.5086 67.1976 42.687 66.6845C39.6339 65.7008 36.7494 64.7723 35.4834 62.5517C34.2751 60.4308 34.8989 57.4752 35.5608 54.3448C36.0371 52.4251 36.3167 50.4608 36.3948 48.4828C36.3171 46.5048 36.038 44.5404 35.5619 42.6207C34.9 39.4915 34.2762 36.5359 35.4845 34.4138C36.7552 32.1932 39.6351 31.2647 42.6882 30.281C44.5095 29.7678 46.272 29.0604 47.9465 28.1707C49.4855 27.1697 50.9139 26.0035 52.2068 24.6921C54.5853 22.4552 56.8298 20.3448 59.4983 20.3448C62.1667 20.3448 64.4112 22.4552 66.7886 24.6921C68.0819 26.0036 69.5106 27.1697 71.05 28.1707C72.7248 29.0606 74.4879 29.768 76.3095 30.281C79.3626 31.2647 82.2471 32.1932 83.5131 34.4138C84.7215 36.5347 84.0977 39.4903 83.4357 42.6207C82.9594 44.5404 82.6798 46.5048 82.6017 48.4828C82.6794 50.4608 82.9585 52.4251 83.4346 54.3448C84.0965 57.474 84.7203 60.4297 83.512 62.5517C82.2413 64.7723 79.3614 65.7008 76.3083 66.6845C74.4871 67.1977 72.7246 67.9051 71.05 68.7948C69.511 69.7958 68.0826 70.962 66.7897 72.2734C64.4112 74.5103 62.1667 76.6207 59.4983 76.6207ZM76.9749 75.4577C76.4101 75.3863 75.8782 75.743 75.7215 76.2983L74.0303 82.2846L67.9611 74.365L68.3584 73.9921C69.527 72.8018 70.8165 71.7404 72.2052 70.8254C73.7358 70.0228 75.3448 69.3847 77.0061 68.9214L77.6449 68.7139L83.4438 76.2783L76.9749 75.4577Z" fill="white"/>
<path d="M59.5001 27.3789C48.0164 27.3789 38.707 36.8272 38.707 48.4824C38.707 60.1375 48.0164 69.5858 59.5001 69.5858C70.9838 69.5858 80.2932 60.1375 80.2932 48.4824C80.2799 36.8328 70.9784 27.3925 59.5001 27.3789ZM59.5001 67.241C49.2925 67.241 41.0174 58.8424 41.0174 48.4824C41.0174 38.1223 49.2925 29.7237 59.5001 29.7237C69.7078 29.7237 77.9829 38.1223 77.9829 48.4824C77.9708 58.8374 69.7029 67.2287 59.5001 67.241Z" fill="white"/>
<path d="M72.8281 43.5856C72.3934 42.9796 71.6998 42.621 70.9613 42.6207H63.8893L61.6945 35.7891C61.2961 34.5588 59.9905 33.8893 58.7783 34.2936C58.081 34.5262 57.534 35.0814 57.3049 35.7891L55.1158 42.6207H48.0381C46.762 42.6201 45.7271 43.6693 45.7266 44.9644C45.7261 45.7147 46.0796 46.4198 46.6773 46.8613L52.4023 51.082L50.2156 57.9137C49.8211 59.1453 50.4852 60.4682 51.6985 60.8685C52.4022 61.1006 53.1727 60.9766 53.7712 60.5352L59.4997 56.3157L65.2259 60.5364C66.0325 61.1446 67.1362 61.1446 67.9428 60.5364C68.7614 59.9459 69.1022 58.8808 68.7815 57.9149L66.5948 51.082L72.3198 46.8613C73.3515 46.0993 73.5791 44.6326 72.8281 43.5856ZM64.557 49.6869C64.1519 49.9857 63.9825 50.5155 64.1377 50.9988L66.5844 58.6406L60.1789 53.9181C59.7742 53.6199 59.2263 53.6199 58.8216 53.9181L52.4162 58.6406L54.8617 50.9988C55.0163 50.5158 54.8471 49.9867 54.4423 49.688L48.0381 44.9655H55.9545C56.4549 44.9655 56.8984 44.6384 57.053 44.1554L59.4997 36.5136L61.9463 44.1542C62.101 44.6373 62.5444 44.9644 63.0449 44.9644L70.9613 44.9655L64.557 49.6869Z" fill="white"/>
<defs>
<linearGradient id="paint0_linear_273_817" x1="76.986" y1="1.88633" x2="-10.5837" y2="27.6968" gradientUnits="userSpaceOnUse">
<stop stop-color="#925FE2"/>
<stop offset="1" stop-color="#DFCFF7"/>
</linearGradient>
</defs>
</svg>
