<svg width="123" height="102" viewBox="0 0 123 102" fill="none" xmlns="http://www.w3.org/2000/svg">
<rect width="85" height="85" rx="42.5" fill="url(#paint0_linear_257_780)"/>
<path d="M117.916 54.0127V18.1505C117.916 13.6563 114.259 10 109.765 10H38.0408C33.5466 10 29.8903 13.6563 29.8903 18.1505V42.602C27.1941 42.602 25 44.7961 25 47.4923V96.3953C25 99.0914 27.1941 101.286 29.8903 101.286H65.7525C68.4487 101.286 70.6428 99.0914 70.6428 96.3953H84.3046C85.8418 96.3953 87.2584 95.6943 88.1908 94.4734C89.1232 93.2524 89.4264 91.7006 89.0222 90.2188L85.8174 78.4642H95.0943V96.3953C95.0943 99.0914 97.2884 101.286 99.9846 101.286H117.916C120.612 101.286 122.806 99.0914 122.806 96.3953V58.903C122.806 56.2068 120.612 54.0127 117.916 54.0127ZM67.3826 96.3953C67.3826 97.2934 66.6507 98.0254 65.7525 98.0254H29.8903C28.9921 98.0254 28.2602 97.2934 28.2602 96.3953V93.1351H67.3826V96.3953ZM67.3826 89.8749H28.2602V54.0127H67.3826V89.8749ZM67.3826 50.7525H28.2602V47.4923C28.2602 46.5941 28.9921 45.8622 29.8903 45.8622H65.7525C66.6507 45.8622 67.3826 46.5941 67.3826 47.4923V50.7525ZM85.8777 91.0762C86.013 91.5702 85.9119 92.0869 85.6006 92.4944C85.2892 92.902 84.8181 93.1351 84.3046 93.1351H70.6428V89.8749H85.55L85.8777 91.0762ZM70.6428 86.6147V78.4642H82.4382L84.6616 86.6147H70.6428ZM95.0943 75.204H70.6428V65.4234H95.0943V75.204ZM95.0943 58.903V62.1632H70.6428V47.4923C70.6428 44.7961 68.4487 42.602 65.7525 42.602H33.1505V18.1505C33.1505 15.4543 35.3446 13.2602 38.0408 13.2602H109.765C112.461 13.2602 114.655 15.4543 114.655 18.1505V54.0127H99.9846C97.2884 54.0127 95.0943 56.2068 95.0943 58.903ZM119.546 96.3953C119.546 97.2934 118.814 98.0254 117.916 98.0254H99.9846C99.0864 98.0254 98.3545 97.2934 98.3545 96.3953V93.1351H119.546V96.3953ZM119.546 89.8749H98.3545V65.4234H119.546V89.8749ZM119.546 62.1632H98.3545V58.903C98.3545 58.0048 99.0864 57.2729 99.9846 57.2729H117.916C118.814 57.2729 119.546 58.0048 119.546 58.903V62.1632Z" fill="#5C5C5C"/>
<defs>
<linearGradient id="paint0_linear_257_780" x1="83.895" y1="2.05562" x2="-11.5335" y2="30.1824" gradientUnits="userSpaceOnUse">
<stop stop-color="#925FE2"/>
<stop offset="1" stop-color="#DFCFF7"/>
</linearGradient>
</defs>
</svg>
