<svg width="103" height="90" viewBox="0 0 103 90" fill="none" xmlns="http://www.w3.org/2000/svg">
<circle cx="39" cy="39" r="39" fill="url(#paint0_linear_273_790)" style="mix-blend-mode:multiply"/>
<path d="M37.4725 20.3226L65.8394 24.1226C65.8924 24.129 65.9455 24.1327 65.9985 24.1327C66.0516 24.1327 66.1046 24.1288 66.1577 24.1226L93.1322 20.5087V24.9066C92.3589 25.7996 90.6654 28.0277 90.6654 30.4661C90.6654 33.2541 92.8781 34.2661 94.3655 34.2661C95.8529 34.2661 98.0655 33.2541 98.0655 30.4661C98.0655 28.0277 96.3722 25.7996 95.5988 24.9066V19.066C95.5988 18.8989 95.5642 18.7405 95.5063 18.5935C95.4853 18.5416 95.4495 18.5011 95.4224 18.453C95.3743 18.3644 95.3262 18.2769 95.2597 18.2034C95.2165 18.1565 95.1647 18.1249 95.1155 18.0869C95.0452 18.0286 94.9761 17.9729 94.8948 17.9324C94.8343 17.902 94.7702 17.8894 94.7048 17.8704C94.6444 17.8514 94.5901 17.8184 94.5248 17.8095L66.1578 14.0095C66.0517 13.9968 65.9456 13.9968 65.8395 14.0095L37.4726 17.8095C36.8583 17.8919 36.3984 18.4301 36.3984 19.066C36.3981 19.7019 36.8582 20.2403 37.4725 20.3226ZM95.5986 30.4661C95.5986 31.477 94.9313 31.7137 94.3653 31.7327C93.7992 31.7137 93.132 31.4768 93.132 30.4661C93.132 29.4147 93.761 28.2418 94.3653 27.3767C94.9696 28.2419 95.5986 29.4149 95.5986 30.4661ZM65.9984 16.5429L84.8302 19.066L65.9984 21.5893L47.1665 19.066L65.9984 16.5429Z" fill="white"/>
<path d="M73.3978 51.9977C75.8891 51.9977 77.9352 50.0837 78.2633 47.615L82.7711 44.1444C83.3163 43.725 83.4273 42.9309 83.0179 42.371C82.6095 41.8111 81.8363 41.6959 81.2911 42.1176L78.1474 44.5395C77.6775 42.9955 76.2887 41.8644 74.6311 41.8644H69.6977C67.6578 41.8644 65.9977 43.5693 65.9977 45.6644C65.9977 43.5693 64.3376 41.8644 62.2977 41.8644H57.3644C55.7067 41.8644 54.3181 42.9955 53.848 44.5395L50.7043 42.1176C50.1604 41.6983 49.3859 41.8123 48.9776 42.371C48.5681 42.9309 48.6791 43.725 49.2243 44.1444L53.7321 47.615C54.0602 50.0837 56.1051 51.9977 58.5977 51.9977H61.0644C63.7852 51.9977 65.9977 49.7252 65.9977 46.931C65.9977 49.7254 68.2104 51.9977 70.931 51.9977H73.3978ZM63.531 46.931C63.531 48.3281 62.4234 49.4644 61.0643 49.4644H58.5975C57.2372 49.4644 56.1308 48.3283 56.1308 46.931V45.6644C56.1308 44.9664 56.6833 44.3978 57.3641 44.3978H62.2974C62.9782 44.3978 63.5307 44.9664 63.5307 45.6644V46.931H63.531ZM68.4645 46.931V45.6644C68.4645 44.9664 69.017 44.3978 69.6977 44.3978H74.6311C75.3118 44.3978 75.8644 44.9664 75.8644 45.6644V46.931C75.8644 48.3281 74.7581 49.4644 73.3976 49.4644H70.9309C69.5707 49.4643 68.4645 48.3281 68.4645 46.931Z" fill="white"/>
<path d="M85.684 78.2906C85.6606 78.2006 85.6236 78.1196 85.5829 78.036C85.5594 77.9916 85.5545 77.941 85.5274 77.8979C85.5138 77.8789 85.4941 77.8688 85.4805 77.8498C85.4288 77.7802 85.3646 77.7232 85.298 77.6649C85.2387 77.6092 85.1808 77.5548 85.1105 77.5141C85.0896 77.5001 85.0773 77.4799 85.0537 77.4672L80.1204 74.9351C79.7232 74.7312 79.252 74.7616 78.8846 75.0136L71.4833 80.0803C71.1404 80.3147 70.9345 80.7112 70.9345 81.1342V85.6258C70.2007 86.2288 68.3988 87.4675 66.0012 87.4675C63.6269 87.4675 61.8078 86.2224 61.0678 85.6219V81.1341C61.0678 80.711 60.8619 80.3145 60.5191 80.0801L53.119 75.0135C52.7514 74.7614 52.2803 74.731 51.8832 74.935L46.9499 77.467C46.9277 77.4785 46.9154 77.4986 46.8957 77.5114C46.8217 77.5545 46.76 77.6115 46.6971 77.671C46.6354 77.7268 46.5738 77.7799 46.5257 77.8458C46.511 77.8662 46.4887 77.8775 46.4751 77.8978C46.4455 77.9434 46.4406 77.9953 46.4172 78.0434C46.3789 78.1233 46.3419 78.2005 46.3198 78.2866C46.3 78.3664 46.295 78.4424 46.2901 78.5235C46.2852 78.6033 46.2815 78.6805 46.2914 78.7616C46.3013 78.8502 46.3297 78.9312 46.3581 79.0149C46.3753 79.0656 46.3741 79.1189 46.3975 79.1669C46.4086 79.1898 46.4296 79.2036 46.4419 79.2253C46.4826 79.2988 46.5381 79.3608 46.5948 79.4254C46.6503 79.4888 46.702 79.552 46.7662 79.6028C46.786 79.6179 46.797 79.6408 46.8168 79.6547L54.2169 84.7214C54.4277 84.8658 54.6658 84.9342 54.9001 84.9342C55.2984 84.9342 55.6907 84.7367 55.9274 84.3706C56.3061 83.788 56.1532 83.0013 55.5857 82.6137L49.953 78.758L52.3457 77.5294L58.6013 81.812V86.201C58.6013 86.5366 58.7308 86.8596 58.9626 87.0965C59.0785 87.2156 61.8388 90.001 66.0013 90.001C70.1638 90.001 72.9241 87.2156 73.04 87.0965C73.2707 86.8596 73.4014 86.5366 73.4014 86.201V81.812L79.6582 77.5294L82.0496 78.7568L76.4169 82.6138C75.8496 83.0014 75.6967 83.788 76.0752 84.3708C76.312 84.7368 76.7042 84.9344 77.1026 84.9344C77.3368 84.9344 77.5749 84.8659 77.7858 84.7215L85.1858 79.6549C85.2056 79.6409 85.2155 79.6194 85.234 79.6054C85.303 79.5523 85.3572 79.4864 85.4152 79.4193C85.4669 79.3559 85.52 79.2989 85.5594 79.228C85.5717 79.2051 85.594 79.1913 85.6051 79.1671C85.631 79.1151 85.631 79.0595 85.6483 79.0062C85.6742 78.9263 85.7014 78.8503 85.7112 78.7668C85.7223 78.6807 85.7186 78.5996 85.7125 78.5147C85.7074 78.4389 85.7037 78.3666 85.684 78.2906Z" fill="white"/>
<path d="M90.7552 74.0058C90.9488 74.4998 91.4113 74.8013 91.9009 74.8013C92.0538 74.8013 92.208 74.7722 92.3585 74.7101C92.9912 74.4517 93.2982 73.7146 93.0467 73.0647C93.022 73.0038 90.6676 66.872 90.6676 60.8679V50.7345C90.6676 39.9424 85.2816 37.053 85.0522 36.9353C84.6711 36.7389 84.2159 36.7579 83.8535 36.9898C83.4897 37.2217 83.2677 37.6282 83.2677 38.0678V43.1344C83.2677 47.925 79.6984 57.7659 78.4638 60.3016C77.3576 62.5753 71.504 69.7346 66.001 69.7346C60.4979 69.7346 54.6443 62.5754 53.5368 60.3016C52.3035 57.7657 48.7341 47.925 48.7341 43.1344V38.0678C48.7341 37.6282 48.5121 37.2217 48.1483 36.9898C47.7845 36.7579 47.3306 36.7389 46.9496 36.9353C46.7202 37.0532 41.3342 39.9424 41.3342 50.7345V60.8679C41.3342 66.872 38.9798 73.004 38.955 73.0647C38.7034 73.7146 39.0105 74.4517 39.6433 74.7101C40.2736 74.9686 40.9938 74.6545 41.2466 74.0058C41.3502 73.7373 43.8008 67.3709 43.8008 60.8678V50.7343C43.8008 45.5979 45.1045 42.6137 46.2675 40.9721V43.1343C46.2675 48.5708 50.1512 59.012 51.3303 61.4339C52.8313 64.517 59.4002 72.2679 66.001 72.2679C72.6018 72.2679 79.1706 64.517 80.6703 61.4339C81.8505 59.012 85.7344 48.5708 85.7344 43.1343V40.9746C86.8999 42.6175 88.2011 45.6006 88.2011 50.7343V60.8678C88.2008 67.3709 90.6515 73.7373 90.7552 74.0058Z" fill="white"/>
<path d="M68.8429 59.9553C68.8035 59.992 67.8736 60.8648 66.0001 60.8648C64.1539 60.8648 63.2238 60.0174 63.1598 59.9566C62.6801 59.4741 61.9067 59.4778 61.4281 59.9693C60.9458 60.4646 60.9458 61.2651 61.4281 61.7603C61.5909 61.9275 63.1054 63.3982 66.0001 63.3982C68.8948 63.3982 70.4094 61.9276 70.5721 61.7603C71.0482 61.2714 71.0469 60.4886 70.5795 59.992C70.1096 59.4956 69.3351 59.4816 68.8429 59.9553Z" fill="white"/>
<path d="M102.935 88.3328C102.827 87.9958 100.136 80.0423 89.7311 77.371C89.07 77.1987 88.4015 77.6142 88.2363 78.2919C88.0711 78.9709 88.4731 79.6586 89.1342 79.8284C98.1709 82.149 100.503 88.8548 100.597 89.1334C100.768 89.6643 101.249 89.9999 101.766 89.9999C101.894 89.9999 102.026 89.9796 102.156 89.9353C102.802 89.7134 103.151 88.9966 102.935 88.3328Z" fill="white"/>
<path d="M85.7325 33.0005V24.1338C85.7325 23.4347 85.1813 22.8672 84.4992 22.8672C83.8172 22.8672 83.2659 23.4347 83.2659 24.1338V32.181C81.226 33.0689 74.7706 35.5339 65.9991 35.5339C57.2275 35.5339 50.7721 33.0689 48.7322 32.181V24.1338C48.7322 23.4347 48.181 22.8672 47.4989 22.8672C46.8169 22.8672 46.2656 23.4347 46.2656 24.1338V33.0005C46.2656 33.4806 46.5295 33.9189 46.9477 34.1341C47.2609 34.2937 54.7375 38.0672 65.9991 38.0672C77.2606 38.0672 84.7373 34.2937 85.0505 34.1341C85.4686 33.9189 85.7325 33.4806 85.7325 33.0005Z" fill="white"/>
<path d="M42.268 77.371C31.8636 80.0425 29.1724 87.996 29.0638 88.3328C28.848 88.9964 29.1971 89.7134 29.8433 89.9352C29.9728 89.9795 30.1036 89.9997 30.2331 89.9997C30.7498 89.9997 31.2308 89.6641 31.4024 89.1333C31.4258 89.0637 33.7606 82.1653 42.8651 79.8283C43.5262 79.6586 43.9283 78.9707 43.7629 78.2918C43.5976 77.6142 42.9278 77.1987 42.268 77.371Z" fill="white"/>
<defs>
<linearGradient id="paint0_linear_273_790" x1="76.986" y1="1.88633" x2="-10.5837" y2="27.6968" gradientUnits="userSpaceOnUse">
<stop stop-color="#925FE2"/>
<stop offset="1" stop-color="#DFCFF7"/>
</linearGradient>
</defs>
</svg>
