<svg width="108" height="97" viewBox="0 0 108 97" fill="none" xmlns="http://www.w3.org/2000/svg">
<rect width="85" height="85" rx="42.5" fill="url(#paint0_linear_257_790)"/>
<path d="M52.3359 35.0703V31.6857V12.378C52.3359 10.179 54.1173 8.39062 56.3217 8.39062H101.784C103.987 8.39062 105.77 10.1786 105.77 12.3779V12.378V53.5938C105.77 55.7942 103.986 57.5796 101.784 57.5796H88.7509L95.9165 90.1146L52.3359 35.0703ZM52.3359 35.0703L54.5359 32.4982L56.5139 30.1855L56.5144 30.1849C57.2609 29.3111 58.2494 28.7647 59.3207 28.5341L60.3077 28.3217V27.3121V16.3643M52.3359 35.0703L60.3077 16.3643M60.3077 16.3643H97.7981V49.6073H60.3079V44.874V41.489L58.1079 44.0616L56.8767 45.5013C56.8767 45.5013 56.8767 45.5014 56.8766 45.5014C56.0132 46.5089 54.7931 47.1359 53.4696 47.2597L52.3359 47.3656V48.5042V53.5938C52.3359 55.7937 54.1182 57.5796 56.3217 57.5796H69.5314L62.3647 90.1166L62.3647 90.1169C61.8802 92.3185 63.2719 94.4953 65.4739 94.9807L65.4748 94.9809C67.6578 95.4605 69.8524 94.0791 70.3345 91.8727C70.3346 91.8724 70.3347 91.872 70.3348 91.8716L77.8873 57.5798H80.3944L87.9474 91.874L87.9475 91.8742C88.3674 93.7791 90.0557 95.077 91.9298 95.0754L60.3077 16.3643ZM92.8109 94.9807L92.8104 94.9808C92.5125 95.0464 92.2164 95.0753 91.9313 95.0754L92.8109 94.9807ZM92.8109 94.9807C95.0121 94.4955 96.4047 92.3194 95.9169 90.1167L92.8109 94.9807Z" stroke="#5C5C5C" stroke-width="2.5"/>
<path d="M80.0518 25.6228C79.8361 25.0793 79.2249 24.8125 78.6817 25.0276L62.5633 30.7168C61.084 29.5714 58.9497 29.7761 57.7161 31.2108L52.6015 37.1836L48.0664 33.2962C48.0963 33.6172 48.1643 33.9291 48.1643 34.2586V42.6977L50.6874 44.8596C52.1847 46.1419 54.4245 45.9438 55.6765 44.4755L61.7653 37.3554L66.676 34.4826L79.5993 26.9214C80.0462 26.6638 80.2442 26.1134 80.0518 25.6228Z" fill="#5C5C5C"/>
<path d="M38.2106 27.1367H35.1732C32.8476 27.1367 30.8026 28.267 29.5027 29.99L20.1792 38.574C18.7264 39.868 18.5946 42.1096 19.9029 43.5711L27.5096 52.0616C28.8065 53.5137 31.0514 53.6421 32.504 52.337C33.9604 51.0318 34.0834 48.7961 32.7784 47.3415L27.5352 41.4864L34.9825 34.8223L30.6451 40.7152L34.888 45.4523C37.2325 48.0723 37.0115 52.0978 34.3927 54.4441C32.6048 56.0469 30.1649 56.423 28.0496 55.6838C28.0496 55.6838 28.0825 72.0512 28.0825 89.5798C28.0825 91.9243 29.9828 93.8248 32.3275 93.8248C34.6697 93.8248 36.5725 91.9243 36.5725 89.5798C36.5725 72.0566 36.5725 82.0564 36.5725 64.2802H39.404C39.404 82.0434 39.404 72.0512 39.404 89.5798C39.404 90.8038 39.0627 91.9372 38.5186 92.9405C39.2309 93.4883 40.1172 93.8248 41.0833 93.8248C43.4292 93.8248 45.3295 91.9243 45.3295 89.5798C45.3295 72.0566 45.3349 79.4025 45.3349 34.2589C45.3353 30.3253 42.1465 27.1367 38.2106 27.1367Z" fill="#5C5C5C"/>
<path d="M32.912 24.5887C34.047 25.1787 35.3213 25.5448 36.6902 25.5448C38.0626 25.5448 39.3369 25.1787 40.4752 24.5877C43.1322 23.2111 44.9637 20.4706 44.9637 17.2721C44.9637 12.7029 41.2596 9 36.69 9C32.1212 9 28.418 12.7029 28.418 17.2721C28.4181 20.4724 30.2515 23.2139 32.912 24.5887Z" fill="#5C5C5C"/>
<defs>
<linearGradient id="paint0_linear_257_790" x1="83.895" y1="2.05562" x2="-11.5335" y2="30.1824" gradientUnits="userSpaceOnUse">
<stop stop-color="#925FE2"/>
<stop offset="1" stop-color="#DFCFF7"/>
</linearGradient>
</defs>
</svg>
