<svg width="98" height="87" viewBox="0 0 98 87" fill="none" xmlns="http://www.w3.org/2000/svg">
<circle cx="39" cy="39" r="39" fill="url(#paint0_linear_273_803)" style="mix-blend-mode:multiply"/>
<path d="M54.8333 66.0026H36.1667V61.9193C36.1667 59.6641 34.3385 57.8359 32.0833 57.8359C29.8282 57.8359 28 59.6641 28 61.9193V85.8359C28 86.4802 28.5224 87.0026 29.1667 87.0026H45.5C47.4246 87.011 48.9917 85.4578 49.0003 83.5332C49.0042 82.6589 48.6793 81.8151 48.09 81.1693C49.3033 79.8503 49.3033 77.8215 48.09 76.5026C48.9678 75.5628 49.2389 74.2076 48.79 73.0026H54.8333C56.7664 73.0026 58.3333 71.4356 58.3333 69.5026C58.3333 67.5696 56.7664 66.0026 54.8333 66.0026ZM45.5 84.6693H40.8333C40.189 84.6693 39.6667 84.1469 39.6667 83.5026C39.6667 82.8583 40.189 82.3359 40.8333 82.3359H45.5C46.1443 82.3359 46.6667 82.8583 46.6667 83.5026C46.6667 84.1469 46.1444 84.6693 45.5 84.6693ZM45.5 80.0026H40.8333C40.189 80.0026 39.6667 79.4802 39.6667 78.8359C39.6667 78.1916 40.189 77.6693 40.8333 77.6693H45.5C46.1443 77.6693 46.6667 78.1916 46.6667 78.8359C46.6667 79.4802 46.1444 80.0026 45.5 80.0026ZM45.5 75.3359H40.8333C40.189 75.3359 39.6667 74.8135 39.6667 74.1693C39.6667 73.525 40.189 73.0026 40.8333 73.0026H45.5C46.1443 73.0026 46.6667 73.525 46.6667 74.1693C46.6667 74.8135 46.1444 75.3359 45.5 75.3359ZM54.8333 70.6693H40.8333C38.9088 70.6608 37.3416 72.2141 37.333 74.1386C37.3291 75.0129 37.654 75.8567 38.2433 76.5026C37.03 77.8215 37.03 79.8503 38.2433 81.1693C37.3656 82.109 37.0945 83.4642 37.5433 84.6693H30.3333V61.9193C30.3333 60.9528 31.1169 60.1693 32.0833 60.1693C33.0498 60.1693 33.8333 60.9528 33.8333 61.9193V67.1693C33.8333 67.8136 34.3557 68.3359 35 68.3359H54.8333C55.4776 68.3359 56 68.8583 56 69.5026C56 70.1469 55.4778 70.6693 54.8333 70.6693Z" fill="white"/>
<path d="M96.8307 17H80.4974C78.5728 16.9916 77.0057 18.5448 76.9971 20.4694C76.9932 21.3437 77.3181 22.1875 77.9074 22.8334C76.6941 24.1523 76.6941 26.1811 77.9074 27.5C77.0296 28.4398 76.7585 29.795 77.2074 31H71.1641C69.231 31 67.6641 32.567 67.6641 34.5C67.6641 36.4331 69.231 38 71.1641 38H89.8307V42.0834C89.8307 44.3385 91.6589 46.1667 93.9141 46.1667C96.1692 46.1667 97.9974 44.3385 97.9974 42.0834V18.1667C97.9974 17.5224 97.4752 17 96.8307 17ZM80.4974 19.3334H85.1641C85.8084 19.3334 86.3307 19.8557 86.3307 20.5C86.3307 21.1443 85.8084 21.6667 85.1641 21.6667H80.4974C79.8531 21.6667 79.3307 21.1443 79.3307 20.5C79.3307 19.8557 79.8531 19.3334 80.4974 19.3334ZM80.4974 24H85.1641C85.8084 24 86.3307 24.5224 86.3307 25.1667C86.3307 25.811 85.8084 26.3334 85.1641 26.3334H80.4974C79.8531 26.3334 79.3307 25.811 79.3307 25.1667C79.3307 24.5224 79.8531 24 80.4974 24ZM80.4974 28.6667H85.1641C85.8084 28.6667 86.3307 29.1891 86.3307 29.8334C86.3307 30.4777 85.8084 31 85.1641 31H80.4974C79.8531 31 79.3307 30.4777 79.3307 29.8334C79.3307 29.1891 79.8531 28.6667 80.4974 28.6667ZM95.6641 42.0834C95.6641 43.0498 94.8805 43.8334 93.9141 43.8334C92.9476 43.8334 92.1641 43.0498 92.1641 42.0834V36.8334C92.1641 36.1891 91.6417 35.6667 90.9974 35.6667H71.1641C70.5198 35.6667 69.9974 35.1443 69.9974 34.5C69.9974 33.8557 70.5198 33.3334 71.1641 33.3334H85.1641C87.0886 33.3418 88.6558 31.7886 88.6644 29.864C88.6683 28.9897 88.3434 28.1459 87.7541 27.5C88.9674 26.1811 88.9674 24.1523 87.7541 22.8334C88.6318 21.8936 88.9029 20.5384 88.4541 19.3334H95.6641V42.0834Z" fill="white"/>
<path d="M63.0013 46.1641C59.7797 46.1641 57.168 48.7758 57.168 51.9974C57.1718 55.2174 59.7813 57.8269 63.0013 57.8307C66.2229 57.8307 68.8346 55.219 68.8346 51.9974C68.8346 48.7758 66.2231 46.1641 63.0013 46.1641ZM63.0013 55.4974C61.0683 55.4974 59.5013 53.9304 59.5013 51.9974C59.5013 50.0644 61.0683 48.4974 63.0013 48.4974C64.9343 48.4974 66.5013 50.0644 66.5013 51.9974C66.5013 53.9304 64.9343 55.4974 63.0013 55.4974Z" fill="white"/>
<path d="M89.5291 51.217L89.1791 50.8238C76.1674 36.3656 53.8985 35.1931 39.4403 48.2049C38.522 49.0313 37.6479 49.9055 36.8215 50.8238L36.4715 51.217C36.072 51.6606 36.072 52.3342 36.4715 52.778L36.8215 53.1711C49.8333 67.6293 72.102 68.8018 86.5602 55.79C87.4785 54.9636 88.3527 54.0894 89.1791 53.1711L89.5291 52.778C89.9285 52.3343 89.9285 51.6607 89.5291 51.217ZM38.9086 51.9975C43.0405 47.5612 48.3166 44.3513 54.1558 42.7213C49.0334 47.5778 48.8177 55.6672 53.6742 60.7897C53.8304 60.9545 53.991 61.1151 54.1558 61.2713C48.3169 59.6419 43.0408 56.4328 38.9086 51.9975ZM63.0003 62.4975C57.2014 62.4975 52.5003 57.7964 52.5003 51.9975C52.5003 46.1984 57.2012 41.4975 63.0003 41.4975C68.7963 41.5045 73.4933 46.2015 73.5003 51.9975C73.5003 57.7965 68.7993 62.4975 63.0003 62.4975ZM71.8448 61.2736C76.9672 56.4172 77.1829 48.3277 72.3263 43.2052C72.1701 43.0404 72.0096 42.8798 71.8448 42.7236C77.6838 44.353 82.9598 47.5621 87.0919 51.9975C82.96 56.4337 77.6839 59.6436 71.8448 61.2736Z" fill="white"/>
<defs>
<linearGradient id="paint0_linear_273_803" x1="76.986" y1="1.88633" x2="-10.5837" y2="27.6968" gradientUnits="userSpaceOnUse">
<stop stop-color="#925FE2"/>
<stop offset="1" stop-color="#DFCFF7"/>
</linearGradient>
</defs>
</svg>
